<?xml version="1.0" encoding="UTF-8" standalone="no"?>
<!-- Created with Inkscape (http://www.inkscape.org/) -->

<svg
   xmlns:dc="http://purl.org/dc/elements/1.1/"
   xmlns:cc="http://creativecommons.org/ns#"
   xmlns:rdf="http://www.w3.org/1999/02/22-rdf-syntax-ns#"
   xmlns:svg="http://www.w3.org/2000/svg"
   xmlns="http://www.w3.org/2000/svg"
   xmlns:sodipodi="http://sodipodi.sourceforge.net/DTD/sodipodi-0.dtd"
   xmlns:inkscape="http://www.inkscape.org/namespaces/inkscape"
   width="43.617115mm"
   height="29.532658mm"
   viewBox="0 0 43.617115 29.532658"
   version="1.1"
   id="svg999"
   inkscape:version="0.92.2 (5c3e80d, 2017-08-06)"
   sodipodi:docname="logo.svg">
  <defs
     id="defs993" />
  <sodipodi:namedview
     id="base"
     pagecolor="#ffffff"
     bordercolor="#666666"
     borderopacity="1.0"
     inkscape:pageopacity="0.0"
     inkscape:pageshadow="2"
     inkscape:zoom="0.35"
     inkscape:cx="-411.85967"
     inkscape:cy="95.809755"
     inkscape:document-units="mm"
     inkscape:current-layer="layer1"
     showgrid="false"
     fit-margin-top="0"
     fit-margin-left="0"
     fit-margin-right="0"
     fit-margin-bottom="0"
     inkscape:window-width="1853"
     inkscape:window-height="1172"
     inkscape:window-x="67"
     inkscape:window-y="0"
     inkscape:window-maximized="1" />
  <metadata
     id="metadata996">
    <rdf:RDF>
      <cc:Work
         rdf:about="">
        <dc:format>image/svg+xml</dc:format>
        <dc:type
           rdf:resource="http://purl.org/dc/dcmitype/StillImage" />
        <dc:title></dc:title>
      </cc:Work>
    </rdf:RDF>
  </metadata>
  <g
     inkscape:label="Layer 1"
     inkscape:groupmode="layer"
     id="layer1"
     transform="translate(-74.953348,-144.65034)">
    <g
       transform="matrix(1.5968967,0,0,1.5968967,-70.040714,-121.66404)"
       id="g6894">
      <path
         id="path5813"
         d="m 99.438302,166.83257 h 0.506195 c 0.292213,0.0391 0.586723,0.0943 0.860533,0.20938 0.72938,0.28991 1.33451,0.88124 1.63593,1.60832 0.38425,0.89504 0.29221,1.97876 -0.2439,2.79327 -0.33823,0.52 -0.84212,0.93186 -1.42194,1.15735 -0.57983,0.22779 -1.233278,0.2623 -1.83611,0.10814 -0.662655,-0.16796 -1.258585,-0.57522 -1.66124,-1.12743 -0.377345,-0.5108 -0.582124,-1.14584 -0.57292,-1.78089 -0.0069,-0.68336 0.241593,-1.36212 0.67646,-1.88442 0.457876,-0.56142 1.127434,-0.94567 1.84301,-1.05151 0.07133,-0.009 0.142655,-0.0184 0.213982,-0.0322 z"
         stroke-miterlimit="10"
         inkscape:connector-curvature="0"
         style="fill:#193154;stroke:#ffffff;stroke-width:0.12524292;stroke-miterlimit:10;stroke-dasharray:none" />
      <path
         id="path5815"
         d="m 99.438302,167.83806 c 0.370443,-0.0437 0.752388,0.0115 1.090618,0.17256 0.41646,0.19098 0.7616,0.53381 0.95717,0.94797 0.18867,0.39345 0.24389,0.85133 0.14956,1.27699 -0.0943,0.44407 -0.34744,0.85593 -0.70637,1.13664 -0.36124,0.29221 -0.83062,0.44637 -1.295402,0.43486 -0.485487,-0.0138 -0.968673,-0.20938 -1.318408,-0.54991 -0.273806,-0.2577 -0.471682,-0.59823 -0.556815,-0.96407 -0.117345,-0.44177 -0.06212,-0.92496 0.133452,-1.33681 0.184071,-0.38195 0.492389,-0.70638 0.867434,-0.90195 0.211681,-0.11274 0.444071,-0.18177 0.678761,-0.21628 z"
         stroke-miterlimit="10"
         inkscape:connector-curvature="0"
         style="fill:#ffffff;stroke:#ffffff;stroke-width:0.00215823;stroke-miterlimit:10" />
      <path
         id="path5817"
         d="m 99.576355,168.82284 c 0.234691,-0.023 0.485485,0.0322 0.678765,0.17256 0.20017,0.13345 0.34283,0.34744 0.40265,0.57752 0.046,0.23009 0.0322,0.47859 -0.0782,0.69027 -0.14035,0.28991 -0.43256,0.49699 -0.752388,0.53841 -0.184071,0.0322 -0.375044,-0.005 -0.54531,-0.0759 -0.31062,-0.13575 -0.540708,-0.43947 -0.579823,-0.7777 -0.04142,-0.2508 0.03221,-0.5108 0.177168,-0.71788 0.163363,-0.22318 0.421062,-0.37734 0.697168,-0.40725 z"
         stroke-miterlimit="10"
         inkscape:connector-curvature="0"
         style="fill:#da0c31;stroke:#da0c31;stroke-width:0.00215823;stroke-miterlimit:10" />
      <path
         id="path5819"
         d="m 110.03158,169.2508 c 0.27381,0 0.54991,-0.009 0.8237,0.002 0.13575,0.5062 0.30146,1.00549 0.43259,1.51168 0.0184,-0.005 0.0322,-0.0161 0.0437,-0.0345 0.31292,-0.49009 0.63044,-0.98018 0.94567,-1.47027 0.0299,-0.0184 0.069,-0.009 0.10354,-0.0115 0.2646,0.002 0.5269,-0.002 0.7915,0 -0.0782,0.14265 -0.17949,0.2715 -0.2669,0.40956 -0.69027,1.02849 -1.38053,2.05929 -2.07315,3.08548 -0.009,0.002 -0.0299,0.007 -0.0391,0.009 -0.28068,0 -0.55914,0.002 -0.83752,-0.002 0.002,-0.0345 0.0253,-0.0598 0.0414,-0.0874 0.25079,-0.36584 0.49699,-0.73168 0.74549,-1.09752 0.0276,-0.0299 0.005,-0.0713 -0.002,-0.10354 -0.23009,-0.70177 -0.45325,-1.40354 -0.67876,-2.10301 -0.0138,-0.0368 -0.023,-0.0713 -0.0299,-0.10814 z"
         stroke-miterlimit="10"
         inkscape:connector-curvature="0"
         style="fill:#ffffff;stroke:#193154;stroke-width:0.00215823;stroke-miterlimit:10" />
      <path
         id="path5821"
         d="m 115.83211,169.2485 c 0.26231,0 0.52463,0 0.78688,0 0.005,0.94106 0.002,1.88212 0.002,2.82319 0.49699,0 0.99168,-0.002 1.48865,0 v 0.0207 c -0.10354,0.21399 -0.18637,0.43717 -0.28068,0.65576 -0.0507,0.005 -0.10354,0.005 -0.15649,0.007 -0.61431,-0.005 -1.22639,0.002 -1.84071,-0.005 0,-1.16655 0,-2.3354 0,-3.50195 z"
         stroke-miterlimit="10"
         inkscape:connector-curvature="0"
         style="fill:#ffffff;stroke:#193154;stroke-width:0.00215823;stroke-miterlimit:10" />
      <path
         id="path5823"
         d="m 109.84058,170.41275 c -0.0966,-0.39576 -0.33592,-0.7616 -0.68564,-0.97558 -0.30374,-0.19327 -0.6696,-0.2623 -1.02389,-0.2508 -0.40035,0.0115 -0.80531,0.14496 -1.09985,0.42107 -0.24852,0.22548 -0.40958,0.5361 -0.48318,0.86283 -0.076,0.38655 -0.076,0.79381 0.0345,1.17345 0.10354,0.34283 0.31062,0.65805 0.60281,0.86744 0.23471,0.16796 0.5177,0.2715 0.80531,0.29681 0.43951,0.0483 0.90655,-0.0437 1.26091,-0.31522 0.3152,-0.23699 0.52462,-0.60053 0.60515,-0.98478 0.0782,-0.35894 0.0736,-0.73859 -0.0161,-1.09522 z m -0.86511,1.20566 c -0.0782,0.17027 -0.20708,0.31982 -0.37734,0.40266 -0.2554,0.12885 -0.5798,0.11964 -0.82832,-0.0253 -0.24847,-0.14266 -0.39115,-0.41876 -0.43717,-0.69487 -0.0506,-0.33133 -0.0276,-0.68797 0.13575,-0.98478 0.12425,-0.22549 0.35664,-0.39115 0.61666,-0.41646 0.26226,-0.0414 0.54987,0.0437 0.73166,0.24389 0.14956,0.15876 0.22551,0.37045 0.2623,0.58213 0.0414,0.29911 0.0207,0.61433 -0.10354,0.89274 z"
         stroke-miterlimit="10"
         inkscape:connector-curvature="0"
         style="fill:#ffffff;stroke:#193154;stroke-width:0.00215823;stroke-miterlimit:10" />
      <path
         id="path5825"
         d="m 106.11315,172.31788 c -0.21396,-0.32212 -0.42336,-0.64885 -0.69947,-0.92265 0.22779,-0.0621 0.43259,-0.20939 0.55684,-0.41186 0.18637,-0.29222 0.20708,-0.66956 0.10124,-0.99399 -0.0875,-0.2738 -0.30832,-0.49008 -0.57065,-0.60283 -0.31754,-0.14265 -0.67183,-0.14035 -1.01239,-0.13805 -0.32672,0.002 -0.65575,-0.005 -0.98247,0.005 0.005,1.16195 0.002,2.3262 0,3.49044 0.0874,0.0207 0.17946,0.005 0.2692,0.009 0.17487,-0.002 0.34973,0.009 0.5246,-0.005 0,-0.40036 -0.002,-0.80071 0.002,-1.20107 0.19095,-0.0207 0.38887,0.0552 0.51542,0.20248 0.25998,0.29221 0.44633,0.63965 0.6304,0.98018 0.0161,0.0368 0.0667,0.0184 0.099,0.023 0.27611,-0.002 0.55221,0.007 0.82832,-0.005 -0.0782,-0.14726 -0.17484,-0.28761 -0.2623,-0.43027 z m -1.04226,-1.47487 c -0.24394,0.0943 -0.51312,0.0529 -0.76851,0.0621 -0.005,-0.32443 -0.005,-0.64885 0,-0.97098 0.16794,-0.007 0.33823,-0.005 0.50849,-0.005 0.18177,0.009 0.38657,0.0736 0.47861,0.2439 0.1334,0.23008 0.0345,0.56831 -0.21859,0.66955 z"
         stroke-miterlimit="10"
         inkscape:connector-curvature="0"
         style="fill:#ffffff;stroke:#193154;stroke-width:0.00215823;stroke-miterlimit:10" />
      <path
         id="path5827"
         d="m 115.15793,169.2531 c -0.35663,-0.009 -0.71557,-0.002 -1.07221,-0.005 -0.76387,1.11593 -1.52779,2.23186 -2.29168,3.34779 -0.0299,0.0506 -0.0805,0.0943 -0.0897,0.15416 0.2554,0.005 0.51312,0 0.7685,0.002 0.0368,0 0.0759,0.005 0.11046,-0.007 0.19095,-0.28071 0.3658,-0.57292 0.5591,-0.85133 0.40728,-0.009 0.81451,-0.005 1.21947,-0.002 0.005,0.28531 0.002,0.57062 0.002,0.85593 0.17491,0.0138 0.34975,0.002 0.52462,0.005 0.0897,-0.005 0.18177,0.0115 0.26918,-0.009 -0.002,-1.16424 -0.005,-2.32849 0,-3.49044 z m -0.7961,1.97416 c -0.25998,0 -0.52228,0.002 -0.78231,-0.002 0.20939,-0.31292 0.41186,-0.62814 0.61894,-0.94106 0.0552,-0.0782 0.0966,-0.16337 0.16106,-0.23469 0.009,0.39345 0.005,0.7846 0.002,1.17805 z"
         stroke-miterlimit="10"
         inkscape:connector-curvature="0"
         style="fill:#ffffff;stroke:#193154;stroke-width:0.00215823;stroke-miterlimit:10" />
      <path
         id="path5829"
         d="m 113.83034,173.62478 c 0.45326,-0.10354 0.92956,-0.0736 1.37596,0.0437 0,0.23699 0,0.47398 0,0.71097 -0.33826,-0.0736 -0.69027,-0.13115 -1.03775,-0.0713 -0.22774,0.046 -0.45325,0.15186 -0.60053,0.33823 -0.21396,0.2669 -0.27611,0.63044 -0.21166,0.96177 0.0506,0.31752 0.24847,0.61433 0.54301,0.75009 0.28531,0.13115 0.60974,0.14955 0.91805,0.11964 0.15877,-0.009 0.31062,-0.0575 0.46706,-0.0805 0.002,0.22319 0.005,0.44867 0,0.67186 l -0.0115,0.0161 c -0.29677,0.0851 -0.60511,0.11272 -0.91343,0.10812 -0.30604,-0.0138 -0.61666,-0.0598 -0.89735,-0.18865 -0.32212,-0.14038 -0.58442,-0.40266 -0.74086,-0.71328 -0.18407,-0.35203 -0.24159,-0.76159 -0.2002,-1.15504 0.0391,-0.40266 0.20938,-0.79611 0.50162,-1.08142 0.21856,-0.22089 0.51075,-0.35664 0.80758,-0.43027 z"
         stroke-miterlimit="10"
         inkscape:connector-curvature="0"
         style="fill:#ffffff;stroke:#193154;stroke-width:0.00215823;stroke-miterlimit:10" />
      <path
         id="path5831"
         d="m 98.276355,173.62018 c 0.266903,0.002 0.533805,-0.005 0.798407,0.005 -0.0046,1.16195 -0.0023,2.3262 0,3.49045 -0.05752,0.0161 -0.117345,0.009 -0.177168,0.009 -0.20708,-0.002 -0.414159,0.005 -0.621239,-0.002 0,-1.16653 0,-2.33538 0,-3.50193 z"
         stroke-miterlimit="10"
         inkscape:connector-curvature="0"
         style="fill:#ffffff;stroke:#193154;stroke-width:0.00215823;stroke-miterlimit:10" />
      <path
         id="path5833"
         d="m 103.50627,173.62478 c 0.79611,-0.009 1.59221,-0.005 2.3906,-0.002 -0.11042,0.23009 -0.23239,0.45788 -0.35202,0.68337 -0.41416,0 -0.82832,-0.002 -1.24247,0.002 -0.005,0.23929 -0.005,0.48088 0,0.72017 0.31984,0.009 0.63962,0.002 0.96174,0.002 -0.002,0.22778 -0.005,0.45327 0,0.67876 -0.31977,0.0115 -0.6419,0 -0.96174,0.005 -0.007,0.474 0,0.94569 -0.005,1.41965 -0.2623,-0.005 -0.5269,-0.002 -0.7915,0 0.002,-1.17116 0.005,-2.34001 0,-3.50886 z"
         stroke-miterlimit="10"
         inkscape:connector-curvature="0"
         style="fill:#ffffff;stroke:#193154;stroke-width:0.00215823;stroke-miterlimit:10" />
      <path
         id="path5835"
         d="m 115.83211,173.62018 c 0.7593,0 1.51859,0 2.27788,0 v 0.0345 c -0.099,0.21168 -0.17487,0.43256 -0.2623,0.64885 -0.40723,0.009 -0.81911,-0.007 -1.22635,0.007 0.002,0.23009 0,0.46018 0,0.69026 0.3152,0.0138 0.63505,0 0.95252,0.007 -0.005,0.22548 -0.002,0.45097 0,0.67646 -0.3175,0.002 -0.63732,-0.0115 -0.95487,0.005 0.005,0.2531 0.002,0.50387 0.002,0.75469 0.45098,0 0.90423,-0.005 1.35518,0.002 0,0.23009 0.0115,0.46018 -0.007,0.68797 -0.71098,-0.002 -1.42197,-0.005 -2.13295,0 -0.009,-1.17116 -0.002,-2.34231 -0.005,-3.51346 z"
         stroke-miterlimit="10"
         inkscape:connector-curvature="0"
         style="fill:#ffffff;stroke:#193154;stroke-width:0.00215823;stroke-miterlimit:10" />
      <path
         id="path5837"
         d="m 109.04908,174.74762 c -0.10812,-0.40266 -0.37044,-0.7685 -0.73858,-0.96868 -0.36585,-0.20708 -0.80069,-0.24619 -1.21027,-0.19097 -0.3152,0.0529 -0.62354,0.18407 -0.85591,0.40726 -0.2761,0.2554 -0.44409,0.61433 -0.49703,0.98248 -0.0483,0.24389 -0.0391,0.49469 -0.007,0.74088 0.0506,0.41186 0.23929,0.81221 0.55679,1.08602 0.30832,0.27378 0.72708,0.40265 1.13664,0.39345 0.37506,0.007 0.75699,-0.10354 1.05382,-0.33823 0.30828,-0.23699 0.5085,-0.59591 0.59131,-0.97097 0.076,-0.37505 0.0691,-0.7708 -0.0299,-1.14124 z m -1.00546,1.48637 c -0.30605,0.33821 -0.89965,0.34513 -1.21717,0.0184 -0.20246,-0.20938 -0.28761,-0.5062 -0.29682,-0.79151 -0.0115,-0.29681 0.0391,-0.60743 0.21401,-0.85133 0.13113,-0.18407 0.34055,-0.30601 0.56372,-0.33132 0.2646,-0.0368 0.55221,0.0483 0.73398,0.25079 0.20478,0.22779 0.27841,0.54071 0.2761,0.83983 0.002,0.30601 -0.0667,0.63044 -0.27382,0.86513 z"
         stroke-miterlimit="10"
         inkscape:connector-curvature="0"
         style="fill:#ffffff;stroke:#193154;stroke-width:0.00215823;stroke-miterlimit:10" />
      <path
         id="path5839"
         d="m 102.59052,177.037 c -0.23239,-0.37505 -0.46938,-0.75009 -0.75009,-1.09062 -0.0506,-0.0621 -0.11275,-0.11275 -0.15646,-0.17947 0.2623,-0.069 0.48548,-0.26 0.60283,-0.5062 0.12655,-0.25309 0.13575,-0.55451 0.0713,-0.82601 -0.0736,-0.28992 -0.28992,-0.53381 -0.55912,-0.65806 -0.30832,-0.14725 -0.65805,-0.15186 -0.99168,-0.15646 -0.34513,0 -0.69027,0 -1.035399,0 0,1.16655 0,2.3354 0,3.50195 0.262299,0.005 0.524599,0.005 0.786899,0 0.005,-0.40035 0.002,-0.79841 0,-1.19646 0.18868,-0.023 0.38655,0.046 0.5131,0.19097 0.26,0.28994 0.44867,0.63507 0.63274,0.97788 0.0138,0.0391 0.0598,0.0276 0.092,0.0299 0.27841,-0.002 0.55681,0.005 0.83522,-0.005 -0.0115,-0.0276 -0.0253,-0.0552 -0.0414,-0.0829 z m -1.18726,-1.85452 c -0.12425,0.0759 -0.27151,0.0943 -0.41186,0.0943 -0.14496,-0.002 -0.28761,0.005 -0.43257,-0.005 0.005,-0.31982 0.005,-0.64195 0,-0.96177 0.11965,-0.0207 0.2439,-0.002 0.36354,-0.009 0.19558,-0.002 0.41646,0.0161 0.56142,0.16107 0.20478,0.19557 0.15416,0.57062 -0.0805,0.72017 z"
         stroke-miterlimit="10"
         inkscape:connector-curvature="0"
         style="fill:#ffffff;stroke:#193154;stroke-width:0.00215823;stroke-miterlimit:10" />
      <path
         id="path5841"
         d="m 112.24966,176.85753 c -0.20478,-0.32673 -0.41651,-0.65115 -0.66726,-0.94336 -0.0391,-0.0529 -0.099,-0.0874 -0.12425,-0.14956 0.22547,-0.0598 0.42337,-0.20708 0.54529,-0.40496 0.18177,-0.29221 0.21171,-0.66265 0.10584,-0.98708 -0.0851,-0.2623 -0.28761,-0.47628 -0.53378,-0.59133 -0.31292,-0.15646 -0.67184,-0.15646 -1.01239,-0.16106 -0.34283,0.002 -0.68569,-0.007 -1.02847,0.005 0.005,1.16195 0.002,2.3262 0,3.49045 0.0575,0.0161 0.11734,0.009 0.17714,0.009 0.20708,-0.002 0.41416,0.005 0.62124,-0.002 0,-0.40036 0,-0.80071 0,-1.20106 0.22089,-0.023 0.43717,0.0851 0.5683,0.2623 0.23701,0.28301 0.41185,0.60973 0.58907,0.93186 0.0322,0.0161 0.0713,0.007 0.10812,0.009 0.26918,-0.002 0.53841,0.007 0.80761,-0.005 -0.0438,-0.092 -0.10359,-0.17485 -0.15646,-0.26228 z m -1.13208,-1.64513 c -0.24848,0.10584 -0.52458,0.0506 -0.78461,0.0644 0,-0.32442 0,-0.64885 0,-0.97327 0.14498,-0.005 0.29219,0 0.43717,-0.002 0.17257,0 0.36357,0.0368 0.49011,0.16337 0.20939,0.21398 0.13573,0.62814 -0.14267,0.74779 z"
         stroke-miterlimit="10"
         inkscape:connector-curvature="0"
         style="fill:#ffffff;stroke:#193154;stroke-width:0.00215823;stroke-miterlimit:10" />
      <path
         id="path5843"
         d="m 97.627505,173.62248 c -0.319823,-0.005 -0.641947,0 -0.96177,-0.002 -0.03451,0.002 -0.07363,-0.005 -0.105841,0.009 -0.763894,1.11593 -1.527788,2.22955 -2.291683,3.34546 -0.03221,0.0483 -0.06672,0.092 -0.08973,0.14498 0.276106,0.009 0.554513,0.002 0.83062,0.005 0.03451,0.005 0.06442,-0.0115 0.08053,-0.0437 0.172566,-0.2715 0.349734,-0.5407 0.522301,-0.81221 0.407257,-0.005 0.814513,-0.002 1.22177,-0.002 0.0046,0.28301 0.0023,0.56604 0,0.84903 0.08743,0.0207 0.179469,0.005 0.269204,0.009 0.174867,-0.002 0.349735,0.007 0.524602,-0.005 0,-1.16653 -0.0023,-2.33308 0,-3.49733 z m -0.793806,1.97646 c -0.257699,0 -0.513097,0.002 -0.770797,0 0.223186,-0.35893 0.462479,-0.70637 0.690266,-1.06301 0.02301,-0.0345 0.04372,-0.0736 0.07823,-0.0966 0.0069,0.38655 0.0069,0.7731 0.0023,1.15964 z"
         stroke-miterlimit="10"
         inkscape:connector-curvature="0"
         style="fill:#ffffff;stroke:#193154;stroke-width:0.00215823;stroke-miterlimit:10" />
      <path
         id="path5845"
         d="m 100.27813,178.63611 c 0.34743,-0.45557 0.93185,-0.68566 1.49327,-0.68794 0.30832,0 0.63274,0.0184 0.91345,0.15646 -0.0414,0.20938 -0.10584,0.41416 -0.15876,0.62124 -0.23929,-0.0851 -0.49469,-0.13575 -0.75009,-0.11964 -0.30832,0.0115 -0.62354,0.14495 -0.80761,0.39805 -0.16796,0.22091 -0.22549,0.50852 -0.21858,0.7823 -0.002,0.28531 0.0851,0.57755 0.28071,0.7892 0.16796,0.18177 0.40495,0.28531 0.64885,0.31062 0.21168,0.0299 0.42336,0 0.63044,-0.0345 0.0759,-0.0138 0.14495,-0.0552 0.22318,-0.0575 0.0299,0.2025 0.0805,0.40265 0.10354,0.60515 -0.0299,0.0391 -0.0828,0.046 -0.12654,0.0644 -0.40496,0.11044 -0.83523,0.13115 -1.24939,0.0529 -0.37504,-0.0736 -0.73628,-0.26 -0.97787,-0.56142 -0.23699,-0.29679 -0.358941,-0.67643 -0.368144,-1.0538 -0.02301,-0.44412 0.08743,-0.9089 0.363544,-1.26554 z"
         stroke-miterlimit="10"
         inkscape:connector-curvature="0"
         style="fill:#ffffff;stroke:#da0c31;stroke-width:0.00215823;stroke-miterlimit:10" />
      <path
         id="path5847"
         d="m 116.3015,178.11381 c 0.34743,-0.17947 0.75699,-0.19097 1.13893,-0.14035 0.17715,0.0345 0.35894,0.0644 0.5177,0.15416 -0.0506,0.21168 -0.11967,0.41876 -0.17256,0.62814 -0.12655,-0.0391 -0.24852,-0.0989 -0.38195,-0.12425 -0.22093,-0.0437 -0.46252,-0.0667 -0.67188,0.0322 -0.10124,0.0506 -0.19095,0.15186 -0.18407,0.27151 -0.007,0.10814 0.0645,0.20248 0.15186,0.26 0.23243,0.15876 0.51539,0.2094 0.75929,0.34283 0.18869,0.092 0.36584,0.21628 0.48553,0.39115 0.1127,0.15646 0.16106,0.35434 0.14956,0.54761 0.0138,0.2485 -0.0852,0.49469 -0.2531,0.67646 -0.21858,0.23699 -0.54305,0.34974 -0.85595,0.38883 -0.43717,0.046 -0.88814,-0.0115 -1.2862,-0.19788 0.0437,-0.22088 0.10354,-0.43947 0.16107,-0.65805 0.28531,0.13573 0.59823,0.22316 0.91577,0.21626 0.11274,-0.002 0.22779,-0.023 0.32905,-0.0759 0.11042,-0.0575 0.19323,-0.17487 0.18407,-0.30372 0.007,-0.12885 -0.0829,-0.23926 -0.18642,-0.30371 -0.21396,-0.13573 -0.46475,-0.18407 -0.68791,-0.30142 -0.22551,-0.11044 -0.4441,-0.2669 -0.56835,-0.49009 -0.10584,-0.17489 -0.11962,-0.38885 -0.0966,-0.58442 0.0437,-0.31748 0.26686,-0.59128 0.55217,-0.72934 z"
         stroke-miterlimit="10"
         inkscape:connector-curvature="0"
         style="fill:#ffffff;stroke:#da0c31;stroke-width:0.00215823;stroke-miterlimit:10" />
      <path
         id="path5849"
         d="m 94.479893,177.99647 c 0.26,0.005 0.52,0.002 0.78,0 0.0046,0.0299 0.0092,0.0575 0.0092,0.0874 -0.0023,1.06531 0,2.13292 0,3.19823 -0.0023,0.0759 0.0046,0.14956 -0.0092,0.22549 -0.26,-0.005 -0.52,-0.005 -0.78,0 -0.0023,-0.0161 -0.0069,-0.0483 -0.0092,-0.0644 0,-1.13433 -0.0023,-2.27097 0,-3.40531 0.0023,-0.0115 0.0069,-0.0299 0.0092,-0.0414 z"
         stroke-miterlimit="10"
         inkscape:connector-curvature="0"
         style="fill:#ffffff;stroke:#da0c31;stroke-width:0.00215823;stroke-miterlimit:10" />
      <path
         id="path5851"
         d="m 110.24324,177.99647 c 0.7179,0.005 1.43575,0.002 2.15363,0.002 0,0.21858 0,0.43487 0,0.65345 -0.45097,0 -0.90423,-0.005 -1.35752,0.002 -0.005,0.24159 -0.005,0.48089 0,0.72248 0.42336,0.005 0.84902,0.002 1.27241,0 0.0184,0.21398 0.007,0.43026 0.007,0.64655 -0.43029,0.007 -0.85826,0.002 -1.2885,0 0.002,0.2738 0.005,0.54531 0,0.81681 0.0414,0.0138 0.0874,0.0115 0.13113,0.0115 0.43716,-0.002 0.87203,0.002 1.3092,-0.002 0.005,0.21858 0.005,0.43947 -0.002,0.65805 -0.74091,-0.005 -1.48177,-0.005 -2.2227,0 -0.009,-0.91803 -0.002,-1.83839 -0.005,-2.75646 0.002,-0.2508 -0.005,-0.5039 0.002,-0.75469 z"
         stroke-miterlimit="10"
         inkscape:connector-curvature="0"
         style="fill:#ffffff;stroke:#da0c31;stroke-width:0.00215823;stroke-miterlimit:10" />
      <path
         id="path5853"
         d="m 112.77421,177.99647 c 0.89505,0.002 1.79012,0.005 2.68516,0 0.007,0.22548 0.009,0.45327 0,0.67876 -0.31524,-0.005 -0.63044,-0.005 -0.94571,0 -0.007,0.58442 0,1.17115 -0.002,1.75557 0,0.35897 -0.005,0.7156 0.002,1.07452 -0.2646,0 -0.5292,-0.002 -0.79611,0.002 -0.009,-0.94794 0.007,-1.89591 -0.007,-2.84159 -0.31525,0.005 -0.62817,0.005 -0.94107,0 -0.002,-0.22319 -0.0115,-0.44638 0.005,-0.66956 z"
         stroke-miterlimit="10"
         inkscape:connector-curvature="0"
         style="fill:#ffffff;stroke:#da0c31;stroke-width:0.00215823;stroke-miterlimit:10" />
      <path
         id="path5855"
         d="m 98.313169,180.51364 c -0.05522,-0.21401 -0.147257,-0.43487 -0.326726,-0.57522 -0.03911,-0.0345 -0.101239,-0.046 -0.124248,-0.0966 0.250797,-0.0989 0.462478,-0.30602 0.552213,-0.56142 0.12885,-0.37964 0.0092,-0.86283 -0.345133,-1.07909 -0.31292,-0.20018 -0.697168,-0.22551 -1.058408,-0.22091 -0.354336,-0.007 -0.706372,0.0115 -1.058407,0.0621 -0.0115,0.0828 -0.0046,0.16566 -0.0069,0.24849 0,1.0423 0.0023,2.0869 0,3.12921 0,0.0299 0.0046,0.0575 0.0092,0.0874 0.257699,-0.002 0.517699,-0.005 0.777699,0 0.0069,-0.45785 0,-0.91803 0.0023,-1.37593 0.184071,0.007 0.384248,-0.0322 0.549912,0.0736 0.151858,0.10124 0.204779,0.28761 0.250796,0.45557 0.06673,0.28531 0.12885,0.57292 0.241594,0.84443 0.271504,0 0.545309,0 0.819115,0 -0.126549,-0.32213 -0.186372,-0.66266 -0.283009,-0.99168 z m -0.651151,-1.37133 c -0.02071,0.16796 -0.15646,0.30144 -0.310619,0.36124 -0.195576,0.0782 -0.409558,0.0345 -0.614337,0.0483 -0.0023,-0.3198 -0.0046,-0.63965 0.0023,-0.95945 0.117345,-0.0276 0.241593,-0.0161 0.36354,-0.0184 0.177168,-0.007 0.375044,0.0483 0.485487,0.1979 0.08053,0.10352 0.08513,0.24387 0.07363,0.37042 z"
         stroke-miterlimit="10"
         inkscape:connector-curvature="0"
         style="fill:#ffffff;stroke:#da0c31;stroke-width:0.00215823;stroke-miterlimit:10" />
      <path
         id="path5857"
         d="m 93.964494,181.35576 c -0.248495,-0.7938 -0.49469,-1.58761 -0.743186,-2.38142 -0.105841,-0.32442 -0.195575,-0.65575 -0.308318,-0.97557 -0.342833,0.002 -0.685665,-0.002 -1.026196,0.002 l -0.0138,0.007 c -0.331328,1.07452 -0.653452,2.15363 -0.982478,3.22815 -0.02531,0.0897 -0.06442,0.17717 -0.06903,0.2715 0.266903,-0.005 0.536107,-0.002 0.803009,-0.002 0.09664,-0.29451 0.167965,-0.59593 0.255399,-0.89274 0.253097,-0.0115 0.506195,-0.002 0.759292,-0.005 0.08053,0.002 0.165664,-0.0115 0.243894,0.0115 0.08513,0.29681 0.172566,0.59133 0.266903,0.88584 0.283009,0 0.563717,-0.002 0.846726,0.002 0.0046,-0.0529 -0.02071,-0.10126 -0.03221,-0.15188 z m -1.967257,-1.34602 c 0.105841,-0.40265 0.232389,-0.80301 0.317522,-1.21256 0.01611,-0.069 0.02071,-0.14266 0.05982,-0.20708 0.08973,0.48318 0.262301,0.94568 0.379646,1.41964 -0.253097,0 -0.506195,0.002 -0.756991,0 z"
         stroke-miterlimit="10"
         inkscape:connector-curvature="0"
         style="fill:#ffffff;stroke:#da0c31;stroke-width:0.00215823;stroke-miterlimit:10" />
      <path
         id="path5859"
         d="m 109.50696,178.77417 c -0.17715,-0.3198 -0.49239,-0.54531 -0.83062,-0.66494 -0.45098,-0.15648 -0.93416,-0.13347 -1.40354,-0.12424 -0.21859,0.0161 -0.43947,0.0207 -0.65118,0.0736 -0.005,0.79149 -0.002,1.58071 -0.002,2.37222 0.002,0.35433 -0.007,0.70637 0.005,1.06073 0.13805,0.0161 0.2784,0.0368 0.41873,0.0368 0.42797,0.023 0.86284,0.0276 1.2862,-0.069 0.23239,-0.046 0.45555,-0.13345 0.66033,-0.2577 0.39808,-0.2485 0.63967,-0.70177 0.70407,-1.15963 0.0576,-0.42803 0.0323,-0.88821 -0.18632,-1.26785 z m -0.66033,1.27009 c -0.0507,0.29221 -0.21859,0.57292 -0.48319,0.71787 -0.28531,0.15874 -0.62817,0.17717 -0.94567,0.14496 0,-0.7639 -0.002,-1.52549 0,-2.28938 0.10812,-0.0322 0.22547,-0.0253 0.33821,-0.0276 0.2531,-0.007 0.5177,0.0437 0.72248,0.19557 0.24847,0.17257 0.37502,0.47401 0.39573,0.7685 0.002,0.16336 0.0138,0.32902 -0.0276,0.49009 z"
         stroke-miterlimit="10"
         inkscape:connector-curvature="0"
         style="fill:#ffffff;stroke:#da0c31;stroke-width:0.00215823;stroke-miterlimit:10" />
      <path
         id="path5861"
         d="m 105.07547,178.00337 c -0.34743,-0.009 -0.69486,-0.002 -1.0423,-0.005 -0.29681,0.94796 -0.57982,1.90055 -0.87203,2.8508 -0.0575,0.21858 -0.14266,0.43256 -0.18868,0.65575 0.27151,-0.002 0.54301,0.005 0.81452,-0.002 0.0828,-0.29682 0.16336,-0.59133 0.24389,-0.88817 0.0759,-0.0138 0.15186,-0.005 0.22779,-0.007 0.2531,0.002 0.50619,-0.002 0.75929,0.002 l 0.0161,0.009 c 0.092,0.29452 0.1795,0.59133 0.26695,0.88585 0.28761,0 0.57753,0 0.86514,0 -0.36359,-1.16883 -0.72943,-2.33538 -1.09065,-3.50193 z m -0.92725,2.00637 c 0.12194,-0.43026 0.24849,-0.86283 0.3428,-1.3 0.009,-0.0345 0.0115,-0.0736 0.0368,-0.0989 0.10589,0.47399 0.2531,0.93646 0.39115,1.40122 -0.25768,-0.005 -0.51307,2e-5 -0.77077,-0.002 z"
         stroke-miterlimit="10"
         inkscape:connector-curvature="0"
         style="fill:#ffffff;stroke:#da0c31;stroke-width:0.00215823;stroke-miterlimit:10" />
      <path
         id="path5863"
         d="m 92.08237,182.38196 c 0.161062,-0.002 0.324425,-0.009 0.483186,0.002 0.0023,0.28529 -0.0046,0.57062 0.0046,0.85593 0.09664,-0.10586 0.223186,-0.1864 0.368142,-0.1979 0.184071,-0.0299 0.38885,0.0506 0.487788,0.21398 0.08743,0.12888 0.115044,0.28761 0.110443,0.44177 -0.0023,0.30372 0.0069,0.60974 -0.0046,0.91345 -0.15646,-0.005 -0.315222,-0.002 -0.471682,0 -0.0046,-0.28991 0,-0.57752 -0.0023,-0.86743 -0.0069,-0.10584 -0.02761,-0.23469 -0.133451,-0.28761 -0.147257,-0.0782 -0.340531,0.0322 -0.356637,0.19558 -0.0069,0.31982 0,0.63964 -0.0046,0.95946 -0.15646,-0.002 -0.315222,-0.005 -0.473983,0 -0.0115,-0.0414 -0.0092,-0.0874 -0.0092,-0.13115 0.0023,-0.69947 -0.0046,-1.39893 0.0023,-2.0984 z"
         stroke-miterlimit="10"
         inkscape:connector-curvature="0"
         style="fill:#ffffff;stroke:#193154;stroke-width:0.00215823;stroke-miterlimit:10" />
      <path
         id="path5865"
         d="m 114.15939,182.41647 c 0.0805,-0.0161 0.17487,-0.0115 0.23925,0.046 0.10589,0.0805 0.11967,0.26002 0.023,0.35433 -0.11962,0.12885 -0.37965,0.0943 -0.43482,-0.0828 -0.0484,-0.12885 0.0299,-0.29221 0.17256,-0.31752 z"
         stroke-miterlimit="10"
         inkscape:connector-curvature="0"
         style="fill:#ffffff;stroke:#193154;stroke-width:0.00215823;stroke-miterlimit:10" />
      <path
         id="path5867"
         d="m 91.010157,182.78691 c 0.151858,-0.0483 0.303717,-0.0874 0.457876,-0.12655 0.0115,0.13573 0.0023,0.27379 0.0046,0.40956 0.112743,0 0.225487,-0.002 0.33823,0.002 0,0.11737 0,0.23702 0,0.35434 -0.112743,0.005 -0.225487,0.002 -0.33823,0.002 0.0023,0.1979 0,0.39575 0,0.59133 0.0023,0.0851 0.02531,0.19097 0.117345,0.21858 0.07133,0.0115 0.142655,0.002 0.213982,-0.005 -0.0046,0.12425 0.0023,0.24852 -0.0046,0.37047 -0.195576,0.0437 -0.421062,0.0713 -0.600532,-0.0391 -0.147256,-0.0897 -0.193274,-0.2715 -0.197876,-0.43027 -0.0046,-0.23699 -0.0023,-0.47168 -0.0023,-0.70637 -0.06673,0 -0.133451,0 -0.200177,0 v -0.35663 c 0.06673,-0.002 0.133452,-0.002 0.200177,-0.002 0.0069,-0.0944 -0.01611,-0.19329 0.0115,-0.28303 z"
         stroke-miterlimit="10"
         inkscape:connector-curvature="0"
         style="fill:#ffffff;stroke:#193154;stroke-width:0.00215823;stroke-miterlimit:10" />
      <path
         id="path5869"
         d="m 101.38485,182.78461 c 0.15416,-0.0345 0.30372,-0.0897 0.46018,-0.12422 0.0115,0.13573 0.002,0.27378 0.005,0.40955 0.11274,0 0.22549,-0.005 0.33823,0.002 0,0.11736 0,0.23701 0,0.35433 -0.11274,0.005 -0.22549,0.002 -0.33823,0.002 0,0.18867 0,0.37965 0,0.57065 0,0.0667 0.009,0.13805 0.0506,0.19557 0.069,0.0782 0.18177,0.0391 0.27381,0.046 0,0.11962 0.007,0.23699 0.009,0.35431 -0.20018,0.0621 -0.43947,0.0782 -0.62124,-0.0414 -0.14496,-0.0966 -0.17717,-0.28301 -0.18637,-0.44408 -0.002,-0.22548 0,-0.45327 0,-0.68108 -0.0667,0.002 -0.13345,0 -0.20018,-0.002 0,-0.11735 0,-0.23699 0,-0.35434 0.0667,-0.002 0.13345,-0.005 0.20018,-0.002 0.002,-0.0943 -0.009,-0.19097 0.009,-0.28531 z"
         stroke-miterlimit="10"
         inkscape:connector-curvature="0"
         style="fill:#ffffff;stroke:#193154;stroke-width:0.00215823;stroke-miterlimit:10" />
      <path
         id="path5871"
         d="m 112.91227,182.78461 c 0.15418,-0.0391 0.30604,-0.0851 0.46017,-0.12422 0.0115,0.13573 0.002,0.27378 0.005,0.40955 0.1127,0 0.22774,-0.005 0.34279,0.002 0.005,0.11736 0.005,0.23701 0,0.35433 -0.11505,0.007 -0.23009,0.002 -0.34279,0.002 0.002,0.18867 -0.002,0.37735 0.002,0.56604 0.002,0.0851 0.0115,0.19325 0.10124,0.23699 0.0736,0.0276 0.15414,-0.002 0.23239,0.0138 -0.0115,0.11737 0.0138,0.24392 -0.0115,0.35896 -0.20477,0.0483 -0.44637,0.0713 -0.62586,-0.0598 -0.14035,-0.10585 -0.16336,-0.29452 -0.17022,-0.45786 -0.005,-0.21858 -0.002,-0.43949 -0.002,-0.65807 -0.0667,0.002 -0.13342,0 -0.20015,-0.002 0,-0.11734 0,-0.23699 0,-0.35433 0.0667,-0.002 0.13347,-0.005 0.20015,-0.002 0.002,-0.0944 -0.0115,-0.19102 0.009,-0.28536 z"
         stroke-miterlimit="10"
         inkscape:connector-curvature="0"
         style="fill:#ffffff;stroke:#193154;stroke-width:0.00215823;stroke-miterlimit:10" />
      <path
         id="path5873"
         d="m 97.013168,183.04691 c 0.174868,-0.0322 0.372744,0.0161 0.490089,0.15646 0.119646,0.13345 0.15646,0.31983 0.151859,0.49469 -0.0023,0.30372 0.0069,0.60974 -0.0046,0.91345 -0.15646,-0.005 -0.315222,-0.002 -0.471682,0 -0.0046,-0.2807 0,-0.56141 -0.0023,-0.84442 -0.0023,-0.10814 -0.01841,-0.23469 -0.115044,-0.30372 -0.101239,-0.0575 -0.243894,-0.0345 -0.315221,0.0599 -0.06212,0.0667 -0.06673,0.15874 -0.06673,0.24389 0,0.28071 0,0.56142 0.0023,0.84443 -0.158761,-0.002 -0.315222,-0.005 -0.473983,0 -0.01611,-0.0575 -0.0092,-0.11735 -0.0092,-0.17717 -0.0023,-0.45328 0.0046,-0.90653 -0.01381,-1.35982 0.142655,-0.007 0.287611,-0.0138 0.425664,0.005 0.0023,0.069 0.0092,0.13573 0.01611,0.20475 0.09203,-0.12424 0.227787,-0.22318 0.386548,-0.23699 z"
         stroke-miterlimit="10"
         inkscape:connector-curvature="0"
         style="fill:#ffffff;stroke:#193154;stroke-width:0.00215823;stroke-miterlimit:10" />
      <path
         id="path5875"
         d="m 107.16235,183.12744 c 0.13806,-0.092 0.31755,-0.11044 0.47861,-0.0713 0.15414,0.0391 0.27841,0.15873 0.33593,0.30601 0.076,0.19558 0.0506,0.40726 0.0552,0.61204 -0.002,0.21168 0.005,0.42566 -0.005,0.63734 -0.15876,-0.005 -0.31524,-0.005 -0.47403,0 -0.0115,-0.29681 0,-0.59362 -0.007,-0.89274 -0.007,-0.0782 -0.0207,-0.16106 -0.0737,-0.22318 -0.092,-0.0966 -0.27148,-0.0782 -0.35201,0.0276 -0.0391,0.0506 -0.0667,0.11044 -0.0644,0.17486 0,0.30372 0,0.60744 0.002,0.91345 -0.16336,-0.002 -0.329,-0.002 -0.49234,0 0,-0.51309 0.009,-1.02619 -0.005,-1.53929 0.14035,0 0.28531,-0.0161 0.42566,0.009 0,0.0621 0.007,0.12424 0.0115,0.18867 0.0598,-0.0414 0.0989,-0.10584 0.16334,-0.14266 z"
         stroke-miterlimit="10"
         inkscape:connector-curvature="0"
         style="fill:#ffffff;stroke:#193154;stroke-width:0.00215823;stroke-miterlimit:10" />
      <path
         id="path5877"
         d="m 110.67813,183.09983 c 0.092,-0.0667 0.21166,-0.069 0.31982,-0.0621 0.0207,0.15188 0.007,0.30604 0.007,0.45788 -0.0989,-0.007 -0.20473,-0.023 -0.29677,0.0253 -0.10123,0.0483 -0.16106,0.15649 -0.16568,0.26693 -0.007,0.27378 0.005,0.54989 -0.007,0.82372 -0.15876,-0.005 -0.31525,-0.005 -0.47403,0 -0.0138,-0.5131 0.005,-1.0262 -0.0115,-1.53929 0.13805,0 0.27845,-0.0138 0.41415,0.007 0.002,0.092 0.007,0.18175 0.0139,0.27378 0.046,-0.099 0.10581,-0.1956 0.20015,-0.25312 z"
         stroke-miterlimit="10"
         inkscape:connector-curvature="0"
         style="fill:#ffffff;stroke:#193154;stroke-width:0.00215823;stroke-miterlimit:10" />
      <path
         id="path5879"
         d="m 117.29776,183.09523 c 0.19792,-0.0966 0.46252,-0.0805 0.62586,0.076 0.11735,0.10122 0.15644,0.2554 0.18637,0.40033 v 1.04 c -0.15876,-0.005 -0.31982,-0.002 -0.47861,0 -0.009,-0.21858 -0.002,-0.43946 -0.005,-0.66035 -0.002,-0.13345 0.0161,-0.27378 -0.0391,-0.39805 -0.0322,-0.0736 -0.11046,-0.12425 -0.19099,-0.11965 -0.14263,-0.009 -0.2646,0.12655 -0.2623,0.2646 0,0.30372 0,0.60744 0.002,0.91345 -0.16337,-0.002 -0.32901,-0.002 -0.49235,0 0,-0.51309 0.009,-1.02619 -0.007,-1.53929 0.14035,-0.005 0.27841,-0.002 0.41646,-0.002 0.0138,0.0667 0.0184,0.13345 0.023,0.20018 0.0736,-0.0598 0.13343,-0.13805 0.22084,-0.17487 z"
         stroke-miterlimit="10"
         inkscape:connector-curvature="0"
         style="fill:#ffffff;stroke:#193154;stroke-width:0.00215823;stroke-miterlimit:10" />
      <path
         id="path5881"
         d="m 99.486621,183.07222 c 0.140354,-0.005 0.283009,0 0.423363,-0.002 0.03681,0.002 0.07593,-0.007 0.108146,0.009 0.0897,0.14264 0.17026,0.29219 0.25539,0.44175 0.005,0.005 0.0184,0.0161 0.023,0.0207 0.0782,-0.15416 0.15876,-0.30832 0.2439,-0.45788 l 0.0161,-0.0115 c 0.16797,-0.005 0.33823,-0.007 0.5085,0.002 -0.14266,0.23009 -0.30602,0.44868 -0.46018,0.67416 -0.0115,0.023 -0.0483,0.0529 -0.023,0.0805 0.16567,0.2623 0.33363,0.52 0.49699,0.7823 -0.18407,-0.0115 -0.37274,0.0115 -0.55221,-0.009 -0.0966,-0.15874 -0.17717,-0.32442 -0.2715,-0.48318 -0.0943,0.15876 -0.17027,0.32904 -0.260003,0.49011 -0.174868,0 -0.347434,-0.002 -0.520001,0.002 0.0023,-0.023 0.0115,-0.0414 0.02301,-0.0598 0.15646,-0.23701 0.315222,-0.46938 0.469381,-0.70637 0.02071,-0.023 -0.0092,-0.0483 -0.02071,-0.069 -0.138053,-0.20478 -0.278407,-0.41186 -0.41646,-0.61664 -0.01841,-0.0276 -0.04142,-0.0553 -0.04372,-0.0875 z"
         stroke-miterlimit="10"
         inkscape:connector-curvature="0"
         style="fill:#ffffff;stroke:#193154;stroke-width:0.00215823;stroke-miterlimit:10" />
      <path
         id="path5883"
         d="m 113.99141,183.07222 c 0.15876,-0.002 0.31982,-0.009 0.4786,0.002 -0.002,0.51309 0.002,1.02389 -0.002,1.53699 -0.15644,-0.002 -0.3152,-0.005 -0.47169,0 -0.009,-0.51312 -0.002,-1.02622 -0.005,-1.53932 z"
         stroke-miterlimit="10"
         inkscape:connector-curvature="0"
         style="fill:#ffffff;stroke:#193154;stroke-width:0.00215823;stroke-miterlimit:10" />
      <path
         id="path5885"
         d="m 95.2783,183.99258 c 0.01381,-0.18638 0.01841,-0.37965 -0.05522,-0.55452 -0.06903,-0.17717 -0.218584,-0.32672 -0.407257,-0.37274 -0.220885,-0.0575 -0.469381,-0.0299 -0.658053,0.10354 -0.190974,0.12887 -0.299115,0.34973 -0.324425,0.57522 -0.02071,0.21398 0.0092,0.44407 0.144956,0.61664 0.126548,0.17256 0.340531,0.26002 0.547611,0.2738 0.225486,0.0161 0.460177,-0.002 0.669557,-0.0874 0.0069,-0.10586 -0.03912,-0.21398 -0.04832,-0.32212 -0.02991,-0.002 -0.05982,0 -0.08743,0.0115 -0.15646,0.0437 -0.324425,0.0552 -0.485487,0.0299 -0.133451,-0.0253 -0.278407,-0.11964 -0.283009,-0.2669 0.329027,-0.007 0.658054,0.005 0.98708,-0.007 z m -0.855929,-0.58213 c 0.06903,-0.0506 0.158761,-0.0552 0.239292,-0.0345 0.117345,0.0322 0.179469,0.16796 0.172566,0.28301 -0.18177,0.002 -0.36354,0.005 -0.543009,-0.002 0.0069,-0.0943 0.05292,-0.19098 0.131151,-0.2462 z"
         stroke-miterlimit="10"
         inkscape:connector-curvature="0"
         style="fill:#ffffff;stroke:#193154;stroke-width:0.00215823;stroke-miterlimit:10" />
      <path
         id="path5887"
         d="m 99.396886,183.99258 c 0.0092,-0.15646 0.02071,-0.31753 -0.02761,-0.46936 -0.05062,-0.20248 -0.200177,-0.38197 -0.400355,-0.44867 -0.133451,-0.0483 -0.278407,-0.0414 -0.41646,-0.0207 -0.225487,0.0368 -0.423363,0.19557 -0.517699,0.40035 -0.105841,0.21626 -0.115045,0.47168 -0.04832,0.69945 0.07593,0.24159 0.294514,0.42336 0.543009,0.46478 0.262301,0.046 0.538408,0.023 0.786903,-0.069 -0.0023,-0.11044 -0.03911,-0.21626 -0.05062,-0.32442 -0.08743,-0.002 -0.165664,0.0414 -0.250797,0.046 -0.151858,0.0115 -0.315221,0.023 -0.453274,-0.0529 -0.08283,-0.0414 -0.15416,-0.12424 -0.15416,-0.2209 0.331328,-0.002 0.660355,0.007 0.989381,-0.005 z m -0.881239,-0.56372 c 0.06673,-0.0667 0.174867,-0.0759 0.264602,-0.0529 0.117345,0.0345 0.179469,0.16796 0.170265,0.28301 -0.18177,0.002 -0.361239,0.005 -0.543009,0 0.0023,-0.0874 0.04602,-0.16797 0.108142,-0.23009 z"
         stroke-miterlimit="10"
         inkscape:connector-curvature="0"
         style="fill:#ffffff;stroke:#193154;stroke-width:0.00215823;stroke-miterlimit:10" />
      <path
         id="path5889"
         d="m 106.28344,183.99718 c 0.0253,-0.22319 0.0161,-0.46248 -0.10124,-0.65806 -0.10354,-0.18177 -0.31062,-0.29451 -0.5177,-0.30143 -0.15876,-0.007 -0.3267,0.0184 -0.46248,0.10586 -0.22551,0.13345 -0.35206,0.39115 -0.36584,0.64425 -0.0115,0.19787 0.023,0.40725 0.14498,0.56832 0.11504,0.15873 0.30599,0.24617 0.49699,0.2761 0.22316,0.0207 0.4556,0.0115 0.66956,-0.0621 0.023,-0.009 0.069,-0.0138 0.0598,-0.0483 -0.0138,-0.0966 -0.0437,-0.19325 -0.0506,-0.29219 -0.007,0 -0.0253,-0.002 -0.0322,-0.005 -0.17256,0.046 -0.35433,0.069 -0.53378,0.0437 -0.13805,-0.0253 -0.28303,-0.11735 -0.29911,-0.26918 0.32893,-0.005 0.66026,0 0.99161,-0.002 z m -0.99168,-0.34283 c 0.0161,-0.092 0.0575,-0.18407 0.13342,-0.2416 0.0714,-0.0552 0.17257,-0.0598 0.25773,-0.0345 0.10812,0.0437 0.16106,0.16564 0.16564,0.27841 -0.18635,0.007 -0.37272,0.009 -0.55679,-0.002 z"
         stroke-miterlimit="10"
         inkscape:connector-curvature="0"
         style="fill:#ffffff;stroke:#193154;stroke-width:0.00215823;stroke-miterlimit:10" />
      <path
         id="path5891"
         d="m 109.77386,183.99258 c 0.0139,-0.19558 0.0161,-0.40266 -0.0713,-0.58441 -0.0805,-0.19097 -0.2623,-0.32902 -0.46706,-0.36123 -0.22551,-0.0299 -0.4763,0.0115 -0.64887,0.17026 -0.27841,0.2485 -0.33593,0.68334 -0.19327,1.01697 0.099,0.22779 0.33597,0.37047 0.57757,0.39575 0.24159,0.0276 0.49469,0.007 0.72243,-0.0805 -0.009,-0.11044 -0.0437,-0.21398 -0.0552,-0.32442 -0.0759,-0.007 -0.14725,0.0345 -0.22321,0.0414 -0.15876,0.0184 -0.33132,0.0299 -0.47626,-0.046 -0.0851,-0.0414 -0.15648,-0.12654 -0.15418,-0.22318 0.32903,-0.002 0.65808,0.007 0.98936,-0.005 z m -0.68334,-0.62815 c 0.14956,0 0.2508,0.15646 0.23701,0.29452 -0.18177,0.005 -0.36356,0.005 -0.54305,0 0.002,-0.15876 0.1404,-0.31522 0.30604,-0.29452 z"
         stroke-miterlimit="10"
         inkscape:connector-curvature="0"
         style="fill:#ffffff;stroke:#193154;stroke-width:0.00215823;stroke-miterlimit:10" />
      <path
         id="path5893"
         d="m 116.35439,183.67505 c -0.0253,-0.16566 -0.10119,-0.32442 -0.22316,-0.43716 -0.16564,-0.16337 -0.41186,-0.22089 -0.63732,-0.20018 -0.26695,0.0115 -0.53383,0.16338 -0.64888,0.40726 -0.14493,0.31294 -0.12192,0.72247 0.12655,0.97557 0.19558,0.20248 0.49932,0.2554 0.7685,0.20708 0.23009,-0.0437 0.44637,-0.19327 0.54301,-0.40956 0.0828,-0.16796 0.0897,-0.36124 0.0713,-0.54301 z m -0.50157,0.29682 c -0.0161,0.0966 -0.0506,0.19787 -0.12655,0.2646 -0.092,0.0805 -0.24389,0.0782 -0.33362,-0.007 -0.0852,-0.076 -0.11967,-0.18867 -0.13118,-0.29912 -0.0138,-0.14498 -0.002,-0.29911 0.0805,-0.42336 0.0391,-0.0621 0.10354,-0.10814 0.17719,-0.11965 0.10354,-0.023 0.21629,0.0345 0.26691,0.12655 0.0782,0.13806 0.092,0.30372 0.0667,0.45788 z"
         stroke-miterlimit="10"
         inkscape:connector-curvature="0"
         style="fill:#ffffff;stroke:#193154;stroke-width:0.00215823;stroke-miterlimit:10" />
      <path
         id="path5895"
         d="m 104.55777,183.07222 c -0.13805,-0.005 -0.2784,-0.007 -0.41646,0 -0.005,0.0552 -0.0115,0.11275 -0.0207,0.16567 -0.0897,-0.11045 -0.22089,-0.19326 -0.36585,-0.20018 -0.25309,-0.023 -0.50389,0.11274 -0.63044,0.33133 -0.11964,0.19327 -0.13805,0.43026 -0.10814,0.65115 0.0345,0.21858 0.16796,0.43026 0.37504,0.5223 0.11735,0.0575 0.2531,0.0621 0.37965,0.046 0.11735,-0.0207 0.21628,-0.092 0.29912,-0.17487 0,0.11504 0,0.23699 -0.0713,0.33593 -0.0874,0.12885 -0.2623,0.15876 -0.40956,0.14035 -0.12655,-0.0115 -0.24619,-0.0598 -0.36124,-0.11044 -0.0345,0.12195 -0.0644,0.24392 -0.092,0.36814 0.11964,0.0736 0.2623,0.0874 0.39805,0.11505 h 0.32212 c 0.20018,-0.0322 0.41416,-0.10354 0.53841,-0.27611 0.15644,-0.21859 0.15644,-0.50159 0.15416,-0.75929 0.002,-0.38425 -0.007,-0.7708 0.009,-1.15505 z m -0.57292,1.08832 c -0.10124,0.10812 -0.28991,0.10122 -0.38885,-0.009 -0.092,-0.10354 -0.11274,-0.2508 -0.10124,-0.38425 0.0115,-0.14956 0.0897,-0.31522 0.2439,-0.35431 0.11044,-0.0299 0.23469,0.0276 0.28531,0.12885 0.0552,0.0966 0.0299,0.21168 0.0368,0.31752 0.002,0.10351 0.005,0.22316 -0.0759,0.30139 z"
         stroke-miterlimit="10"
         inkscape:connector-curvature="0"
         style="fill:#ffffff;stroke:#193154;stroke-width:0.00215823;stroke-miterlimit:10" />
      <path
         id="path5897"
         d="m 112.49125,183.62904 c -0.007,-0.14496 -0.046,-0.29452 -0.14726,-0.40266 -0.10816,-0.12655 -0.28073,-0.17947 -0.44409,-0.18867 -0.23239,-0.009 -0.46938,0.023 -0.67646,0.13347 0.0184,0.10812 0.0575,0.20938 0.0852,0.31753 0.16336,-0.0851 0.35433,-0.14266 0.5407,-0.10587 0.0943,0.0184 0.16795,0.10124 0.16565,0.1979 -0.21396,0.007 -0.43947,0.0253 -0.63275,0.13115 -0.24847,0.11962 -0.34051,0.45325 -0.21166,0.69027 0.0828,0.15186 0.2554,0.24849 0.42797,0.23927 0.17026,0.009 0.34283,-0.0529 0.4556,-0.18407 0.007,0.0529 0.0161,0.10354 0.0322,0.15415 0.14268,-0.002 0.28531,-0.002 0.42801,0 -0.0369,-0.32672 -0.0185,-0.65575 -0.023,-0.98247 z m -0.49934,0.55221 c -0.069,0.10354 -0.21396,0.15646 -0.32442,0.0944 -0.10584,-0.0644 -0.10124,-0.23702 0,-0.30372 0.10124,-0.0713 0.23009,-0.0851 0.35206,-0.0759 -0.002,0.0943 0.023,0.20016 -0.0276,0.28529 z"
         stroke-miterlimit="10"
         inkscape:connector-curvature="0"
         style="fill:#ffffff;stroke:#193154;stroke-width:0.00215823;stroke-miterlimit:10" />
    </g>
  </g>
</svg>
